<?xml version="1.0" encoding="UTF-8" standalone="no"?>
<svg
   width="51"
   height="49"
   viewBox="0 0 51 49"
   fill="none"
   xmlns="http://www.w3.org/2000/svg"
   xmlns:svg="http://www.w3.org/2000/svg">
  <path
     fill-rule="evenodd"
     clip-rule="evenodd"
     d="M20 11.6667C15.3976 11.6667 11.6667 15.3976 11.6667 20C11.6667 24.6024 15.3976 28.3333 20 28.3333C24.6024 28.3333 28.3333 24.6024 28.3333 20C28.3333 15.3976 24.6024 11.6667 20 11.6667ZM15 20C15 17.2386 17.2386 15 20 15C22.7614 15 25 17.2386 25 20C25 22.7614 22.7614 25 20 25C17.2386 25 15 22.7614 15 20Z"
     fill="#004152" />
  <path
     fill-rule="evenodd"
     clip-rule="evenodd"
     d="M18.3333 0C16.4924 0 15 1.49238 15 3.33333L15 4.91449C15 4.91449 14.9961 4.92444 14.9867 4.93677C14.966 4.96378 14.9255 4.99769 14.8668 5.01777C14.2374 5.23337 13.626 5.48744 13.0354 5.77713C12.9801 5.80428 12.9277 5.80894 12.8942 5.8045C12.8789 5.80247 12.8691 5.79815 12.8691 5.79815L11.7504 4.67944C10.4487 3.37769 8.33812 3.37769 7.03637 4.67944L4.67934 7.03646C3.3776 8.33821 3.3776 10.4488 4.67934 11.7505L5.79813 12.8693C5.79813 12.8693 5.80241 12.879 5.80443 12.8943C5.80888 12.9279 5.80422 12.9802 5.77707 13.0355C5.48741 13.6261 5.23336 14.2375 5.01777 14.8668C4.99769 14.9255 4.96379 14.966 4.93677 14.9867C4.92444 14.9961 4.91438 15 4.91438 15H3.33333C1.49238 15 0 16.4924 0 18.3333V21.6667C0 23.5076 1.49238 25 3.33333 25L4.91449 25C4.91449 25 4.92444 25.0039 4.93677 25.0133C4.96378 25.034 4.99769 25.0745 5.01777 25.1332C5.23336 25.7625 5.48742 26.3739 5.7771 26.9645C5.80425 27.0199 5.80891 27.0722 5.80446 27.1057C5.80244 27.121 5.79812 27.1308 5.79812 27.1308L4.67934 28.2496C3.37759 29.5513 3.37759 31.6619 4.67934 32.9636L7.03636 35.3207C8.33811 36.6224 10.4487 36.6224 11.7504 35.3207L12.8693 34.2018C12.8693 34.2018 12.879 34.1976 12.8943 34.1955C12.9278 34.1911 12.9801 34.1957 13.0355 34.2229C13.626 34.5126 14.2374 34.7666 14.8668 34.9822C14.9255 35.0023 14.966 35.0362 14.9867 35.0632C14.9961 35.0756 15 35.0856 15 35.0856V36.6667C15 38.5076 16.4924 40 18.3333 40H21.6667C23.5076 40 25 38.5076 25 36.6667L25 35.0855C25 35.0855 25.0017 35.0812 25.0056 35.0747C25.0075 35.0714 25.0101 35.0674 25.0133 35.0632C25.034 35.0362 25.0745 35.0023 25.1332 34.9822C25.7625 34.7666 26.3739 34.5126 26.9645 34.2229C27.0198 34.1958 27.0721 34.1911 27.1057 34.1956C27.121 34.1976 27.1307 34.2019 27.1307 34.2019L28.2496 35.3207C29.5513 36.6225 31.6619 36.6225 32.9636 35.3207L35.3206 32.9637C36.6224 31.662 36.6224 29.5514 35.3206 28.2497L34.2018 27.1308C34.2018 27.1308 34.1975 27.1211 34.1955 27.1058C34.1911 27.0723 34.1957 27.0199 34.2229 26.9646C34.5126 26.374 34.7666 25.7626 34.9822 25.1332C35.0023 25.0745 35.0362 25.034 35.0632 25.0133C35.0756 25.0039 35.0856 25 35.0856 25H36.6667C38.5076 25 40 23.5076 40 21.6667V18.3333C40 16.4924 38.5076 15 36.6667 15L35.0855 15C35.0855 15 35.0756 14.9961 35.0632 14.9867C35.0362 14.966 35.0023 14.9255 34.9822 14.8668C34.7666 14.2374 34.5126 13.626 34.2229 13.0355C34.1957 12.9801 34.1911 12.9278 34.1955 12.8943C34.1976 12.879 34.2019 12.8692 34.2019 12.8692L35.3206 11.7504C36.6224 10.4487 36.6224 8.33814 35.3206 7.03639L32.9636 4.67936C31.6619 3.37761 29.5513 3.37761 28.2496 4.67936L27.1307 5.79816C27.1307 5.79816 27.121 5.80244 27.1057 5.80446C27.0722 5.80891 27.0199 5.80425 26.9645 5.7771C26.3739 5.48742 25.7625 5.23336 25.1332 5.01777C25.0745 4.99769 25.034 4.96378 25.0133 4.93677C25.0039 4.92444 25 4.91438 25 4.91438V3.33333C25 1.49238 23.5076 0 21.6667 0H18.3333ZM18.3333 3.33333H21.6667V4.91521C21.6667 6.48575 22.7381 7.72084 24.053 8.17123C24.5489 8.3411 25.0308 8.54136 25.4966 8.76982C26.7453 9.38228 28.3767 9.26627 29.4873 8.15572L30.6066 7.03638L32.9636 9.39341L31.8443 10.5127C30.7337 11.6233 30.6177 13.2547 31.2302 14.5034C31.4586 14.9692 31.6589 15.4511 31.8288 15.947C32.2792 17.2619 33.5142 18.3333 35.0848 18.3333H36.6667V21.6667H35.0848C33.5142 21.6667 32.2792 22.7381 31.8288 24.053C31.6589 24.5489 31.4586 25.0309 31.2302 25.4967C30.6177 26.7453 30.7337 28.3768 31.8442 29.4873L32.9636 30.6067L30.6066 32.9637L29.4872 31.8443C28.3766 30.7338 26.7452 30.6178 25.4966 31.2302C25.0308 31.4587 24.5489 31.6589 24.053 31.8288C22.7381 32.2792 21.6667 33.5142 21.6667 35.0848V36.6667L18.3333 36.6667V35.0848C18.3333 33.5143 17.2619 32.2792 15.947 31.8288C15.4511 31.6589 14.9692 31.4586 14.5034 31.2302C13.2547 30.6177 11.6233 30.7337 10.5127 31.8443L9.39338 32.9636L7.03636 30.6066L8.15572 29.4873C9.26627 28.3767 9.38228 26.7453 8.76982 25.4966C8.54136 25.0308 8.3411 24.5489 8.17123 24.053C7.72084 22.7381 6.48575 21.6667 4.91521 21.6667H3.33333V18.3333H4.91521C6.48575 18.3333 7.72084 17.2619 8.17123 15.947C8.3411 15.4511 8.54134 14.9692 8.76979 14.5034C9.38225 13.2548 9.26623 11.6233 8.15569 10.5128L7.03637 9.39349L9.39339 7.03646L10.5127 8.15575C11.6232 9.2663 13.2547 9.38231 14.5033 8.76984C14.9691 8.54137 15.4511 8.34111 15.947 8.17123C17.2619 7.72084 18.3333 6.48575 18.3333 4.91522V3.33333Z"
     fill="#004152" />
  <path
     d="m 32.4473,24.4189 c 1.7401,-2.6437 5.6738,-2.5554 7.2675,0.2647 h 0.001 l 9.2139,16.3135 0.001,9e-4 C 50.5356,43.8445 48.5605,47.5 45.2148,47.5 H 26.7861 c -3.3442,0 -5.3239,-3.6549 -3.7158,-6.5029 l 9.2149,-16.3135 z m 3.5429,7.0831 c -0.0022,0.001 -0.0055,0.0026 -0.0088,0.0058 -0.0035,0.0036 -0.0059,0.0076 -0.0068,0.0098 -5e-4,0.0013 -9e-4,0.0039 -0.001,0.0097 v 0.75395 3.97075 c 0,0.0064 5e-4,0.0094 0.001,0.0107 9e-4,0.0022 0.0034,0.0053 0.0068,0.0088 0.0034,0.0034 0.0066,0.0058 0.0088,0.0068 0.0013,5e-4 0.0042,0.002 0.0108,0.002 0.0066,0 0.0095,-0.0015 0.0107,-0.002 0.0022,-0.001 0.0054,-0.0034 0.0088,-0.0068 0.0026,-0.0026 0.0046,-0.005 0.0058,-0.0069 4.19e-4,-6.7e-4 7.46e-4,-0.0013 9.76e-4,-0.0019 5.42e-4,-0.0013 0.001,-0.0043 0.001,-0.0107 V 36.195028 31.5273 c 0,-0.0058 -4e-4,-0.0084 -0.001,-0.0097 -9e-4,-0.0022 -0.0032,-0.0062 -0.0068,-0.0098 C 36.0172,31.5046 36.0139,31.503 36.0117,31.502 36.0105,31.5014 36.0076,31.5 36.001,31.5 c -0.0066,0 -0.0095,0.0014 -0.0108,0.002 z"
     fill="#d97e7e"
     stroke="#ffffff"
     stroke-width="3" />
  <circle
     style="fill:#ffffff;stroke-width:1.9154"
     cx="35.980816"
     cy="41.494816"
     r="1.5338159" />
</svg>
